<?xml version="1.0" encoding="utf-8"?>
<!-- Generator: Adobe Illustrator 27.0.1, SVG Export Plug-In . SVG Version: 6.00 Build 0)  -->
<svg version="1.1" xmlns="http://www.w3.org/2000/svg" xmlns:xlink="http://www.w3.org/1999/xlink" x="0px" y="0px"
	 viewBox="0 0 750 750" style="enable-background:new 0 0 750 750;" xml:space="preserve">
<style type="text/css">
	.st0{fill:#FFFFFF;}
	.st1{fill:#084CD0;}
	.st2{fill:#231F20;}
	.st3{fill:none;}
</style>
<g id="Bkg">
	<rect class="st2" width="750" height="750"/>
</g>
<g id="Logo">
	<g>
		<g>
			<path class="st0" d="M545,360.2l-11.7,33.5h-3.9l-10.3-28.6l-10.3,28.6H505l-11.8-33.5h3.7l10.2,28.8l10.4-28.8h3.5l10.4,29
				l10.2-29H545z"/>
			<path class="st0" d="M575.8,393.7l-8.1-10.8l-2.8,0.2h-9.4v10.6h-3.7v-33.5h13.1c4.5,0,8,1,10.6,3c2.5,2.1,3.9,5.2,3.7,8.5
				c0.1,2.4-0.6,4.7-2,6.6c-1.5,1.9-3.6,3.2-6,3.9l8.6,11.5H575.8z M572.8,377.8c1.9-1.5,2.9-3.8,2.8-6.2c0.1-2.4-0.9-4.7-2.8-6.3
				c-1.8-1.5-4.5-2.2-8-2.2h-9.3v16.8h9.3C568.3,380.1,571,379.3,572.8,377.8z"/>
			<path class="st0" d="M598.8,377.9l-7.1,7v8.7H588v-33.5h3.7v20.3l20.6-20.3h4.2l-15.2,15.2l16.2,18.3h-4.4L598.8,377.9z"/>
			<path class="st0" d="M279,377.3c0-10.3,8.3-17.8,19.3-17.8c5.9,0,11,2,14.3,5.8l-4.3,3.9c-2.5-2.6-6-4.1-9.7-4
				c-7.4,0-12.9,5.1-12.9,12.2c0,7.1,5.5,12.2,12.9,12.2c3.7,0,7.3-1.5,9.7-4.1l4.3,4c-3.4,3.8-8.5,5.8-14.3,5.8
				C287.2,395.1,279,387.6,279,377.3z"/>
			<path class="st0" d="M341.5,394.6l-7.3-10.1h-9.5v10.1H318V360h14.8c9.5,0,15.4,4.7,15.4,12.3c0.2,4.9-2.9,9.3-7.7,10.9l8.3,11.4
				H341.5z M332.5,365.4h-7.8v13.8h7.8c5.9,0,8.9-2.6,8.9-6.9S338.4,365.4,332.5,365.4z"/>
			<path class="st0" d="M352,377.3c0-10.2,8.3-17.8,19.4-17.8c11.1,0,19.4,7.5,19.4,17.8c0,10.2-8.3,17.8-19.4,17.8
				C360.3,395.1,352,387.5,352,377.3z M384.1,377.3c0-6.7-5.7-12.2-12.7-12.2c-7,0-12.7,5.4-12.7,12.2c0,6.7,5.7,12.2,12.7,12.2
				C378.4,389.4,384.1,384,384.1,377.3z"/>
			<path class="st0" d="M448.5,360l-12,34.6h-7.1l-8.8-25.6l-9.1,25.6h-7.1L392.4,360h6.9l8.9,26.3l9.3-26.3h6.2l9,26.4L442,360
				H448.5z"/>
			<path class="st0" d="M452.9,360h15.8c11.6,0,19.6,6.9,19.6,17.3c0,10.4-8,17.3-19.6,17.3h-15.8V360z M468.4,389.2
				c8,0,13.2-4.7,13.2-11.9c0-7.2-5.2-11.9-13.2-11.9h-8.8v23.7H468.4z"/>
		</g>
		<g>
			<path class="st0" d="M189.2,348.4c8.2,0,15.5-3.6,20.5-9.3l18,10.3l11.4-6.6l-2.6-1.5c0,0,0,0-0.1,0l-21.1-12.1c0,0,0-0.1,0-0.1
				l-11.6-6.7c-0.8,7.4-7.1,13.1-14.7,13.1c-7.5,0-13.7-5.5-14.7-12.7l-11.5,6.6c0,0,0,0.1,0.1,0.1l-21.2,12.1c0,0-0.1,0-0.1-0.1
				l-2.2,1.3l11.6,6.5l17.7-10.1C173.9,344.9,181.1,348.4,189.2,348.4z"/>
			<path class="st0" d="M152.6,396.9c3.7,6.4,2.1,14.5-3.6,19l35.7,20.5l-0.1-12.5l-18.8-10.8c2.5-7.3,1.9-15.5-2.3-22.7
				c-4.2-7.3-11.2-11.9-18.9-13.3l-0.1-21.3l-10.9-6.1v6.8c0,0,0,0,0,0l0.1,20.8c0,0-0.1,0-0.1,0v13.4
				C140.6,387.7,148.8,390.2,152.6,396.9z"/>
			<path class="st0" d="M214.6,390.4c-4.2,7.2-4.7,15.5-2.2,22.9l-19,10.9l0.1,12.4l35.8-20.6c-5.7-4.5-7.4-12.6-3.7-19.1
				c3.8-6.5,11.6-9,18.3-6.3v-13.3c0,0-0.1,0-0.1,0l0.1-21c0,0,0,0,0,0V350l-10.9,6.3l-0.1,21C225.5,378.8,218.7,383.3,214.6,390.4z
				"/>
			<path class="st0" d="M189.1,328.1c4.1,0,7.4-3.3,7.3-7.4c0-1-0.2-2-0.6-2.9c-1.1-2.6-3.7-4.5-6.8-4.5c-3.3,0-6,2.1-7,5.1
				c-0.2,0.7-0.4,1.5-0.4,2.3C181.8,324.9,185.1,328.2,189.1,328.1z"/>
			<path class="st0" d="M146.1,400.6c-2-3.5-6.5-4.7-10.1-2.7c-1,0.6-1.7,1.3-2.3,2.1c-1.6,2.3-1.8,5.4-0.3,7.9
				c1.7,2.8,4.9,4.2,8,3.5c0.7-0.2,1.4-0.4,2.1-0.8C147,408.6,148.2,404.1,146.1,400.6z"/>
			<path class="st0" d="M242.2,397.9c-3.5-2-8-0.9-10.1,2.7s-0.9,8,2.7,10.1c0.7,0.4,1.5,0.7,2.2,0.8c3,0.6,6.2-0.7,7.8-3.5
				c1.6-2.8,1.2-6.3-0.8-8.6C243.5,398.9,242.9,398.4,242.2,397.9z"/>
		</g>
	</g>
</g>
</svg>
