<?xml version="1.0" encoding="utf-8"?>
<!-- Generator: Adobe Illustrator 27.0.1, SVG Export Plug-In . SVG Version: 6.00 Build 0)  -->
<svg version="1.1" xmlns="http://www.w3.org/2000/svg" xmlns:xlink="http://www.w3.org/1999/xlink" x="0px" y="0px"
	 viewBox="0 0 750 750" style="enable-background:new 0 0 750 750;" xml:space="preserve">
<style type="text/css">
	.st0{fill:#FFFFFF;}
	.st1{fill:#084CD0;}
	.st2{fill:#231F20;}
	.st3{fill:none;}
</style>
<g id="Bkg">
	<rect class="st1" width="750" height="750"/>
</g>
<g id="Logo">
	<g>
		<path class="st0" d="M375.3,290.6c25.9-0.1,49.1-11.5,65.1-29.5l57.1,32.6l36.2-20.9l-8.1-4.7c-0.1,0-0.2,0-0.2,0.1l-67-38.3
			c0-0.1,0.1-0.2,0.1-0.4l-36.7-21.2c-2.7,23.4-22.5,41.6-46.6,41.7c-23.8,0.1-43.4-17.5-46.7-40.3l-36.5,21c0,0.1,0.1,0.3,0.2,0.4
			L225,269.6c-0.1-0.1-0.2-0.1-0.4-0.2l-7.1,4.1l36.9,20.6l56.1-32.1C326.6,279.6,349.6,290.6,375.3,290.6z"/>
		<path class="st0" d="M259.2,444.3c11.9,20.4,6.6,46.1-11.3,60.4l113.4,65.1l-0.3-39.7L301.4,496c7.8-23.1,6-49.3-7.2-72
			c-13.4-23-35.7-37.6-59.9-42.1l-0.2-67.7l-34.7-19.4v21.5c0,0,0.1,0,0.1,0.1l0.2,66.1c-0.1,0-0.2,0-0.3,0V425
			C221,415.3,247,423.3,259.2,444.3z"/>
		<path class="st0" d="M455.8,424c-13.3,22.9-15,49.3-7,72.5l-60.3,34.6l0.2,39.3l113.6-65.4c-18.2-14.3-23.5-40.1-11.6-60.6
			c11.9-20.5,36.9-28.6,58.2-20v-42.1c-0.1,0-0.2,0-0.3,0l0.2-66.7c0,0,0.1,0,0.1,0v-19.8l-34.7,20l-0.2,66.5
			C490.5,387.1,468.9,401.5,455.8,424z"/>
		<path class="st0" d="M375.1,226.3c12.9,0,23.3-10.5,23.3-23.4c0-3.2-0.7-6.3-1.9-9.1c-3.6-8.3-11.9-14.2-21.5-14.1
			c-10.3,0-19.1,6.8-22.1,16.1c-0.8,2.3-1.2,4.8-1.2,7.3C351.7,215.9,362.2,226.4,375.1,226.3z"/>
		<path class="st0" d="M238.7,456.3c-6.5-11.2-20.8-14.9-31.9-8.4c-3,1.8-5.5,4.1-7.4,6.8c-5,7.2-5.8,17-1.1,25.1
			c5.2,9,15.6,13.2,25.3,11.1c2.3-0.5,4.5-1.4,6.7-2.6C241.4,481.7,245.1,467.4,238.7,456.3z"/>
		<path class="st0" d="M543.3,447.8c-11.2-6.5-25.4-2.7-31.9,8.4c-6.5,11.2-2.7,25.4,8.4,31.9c2.3,1.3,4.6,2.2,7.1,2.7
			c9.6,2,19.7-2.2,24.9-11.1c5.2-8.9,3.8-19.8-2.7-27.2C547.4,450.7,545.5,449.1,543.3,447.8z"/>
	</g>
</g>
</svg>
